<?xml version="1.0" encoding="utf-8"?>
<svg version="1.1" xmlns:xlink="http://www.w3.org/1999/xlink" width="19px" height="12px" xmlns="http://www.w3.org/2000/svg">
  <g transform="matrix(1 0 0 1 -513 -128 )">
    <path d="M 18.6474609375 0.395833333333334  C 18.8824869791667 0.659722222222221  19 0.972222222222219  19 1.33333333333333  C 19 1.69444444444444  18.8824869791667 2.00694444444444  18.6474609375 2.27083333333333  L 10.3349609375 11.6041666666667  C 10.0999348958333 11.8680555555556  9.82161458333333 12  9.5 12  C 9.17838541666667 12  8.90006510416667 11.8680555555556  8.6650390625 11.6041666666667  L 0.3525390625 2.27083333333333  C 0.117513020833333 2.00694444444444  0 1.69444444444444  0 1.33333333333333  C 0 0.972222222222219  0.117513020833333 0.659722222222221  0.3525390625 0.395833333333334  C 0.587565104166667 0.131944444444443  0.865885416666667 0  1.1875 0  L 17.8125 0  C 18.1341145833333 0  18.4124348958333 0.131944444444443  18.6474609375 0.395833333333334  Z " fill-rule="nonzero" fill="#81d3f8" stroke="none" transform="matrix(1 0 0 1 513 128 )" />
  </g>
</svg>