<?xml version="1.0" encoding="utf-8"?>
<svg version="1.1" xmlns:xlink="http://www.w3.org/1999/xlink" width="11px" height="12px" xmlns="http://www.w3.org/2000/svg">
  <g transform="matrix(1 0 0 1 -829 -366 )">
    <path d="M 6.51345755693582 10.7254509018036  C 6.58937198067633 10.8056112224449  6.62732919254658 10.8977955911824  6.62732919254658 11.002004008016  C 6.62732919254658 11.1062124248497  6.58937198067633 11.1983967935872  6.51345755693582 11.2785571142285  L 5.94409937888199 11.8797595190381  C 5.86818495514148 11.9599198396794  5.78088336783989 12  5.68219461697723 12  C 5.58350586611456 12  5.49620427881298 11.9599198396794  5.42028985507246 11.8797595190381  L 0.113871635610766 6.27655310621242  C 0.0379572118702554 6.19639278557114  0 6.10420841683367  0 6  C 0 5.89579158316633  0.0379572118702554 5.80360721442886  0.113871635610766 5.72344689378758  L 5.42028985507246 0.120240480961924  C 5.49620427881298 0.0400801603206409  5.58350586611456 0  5.68219461697723 0  C 5.78088336783989 0  5.86818495514148 0.0400801603206409  5.94409937888199 0.120240480961924  L 6.51345755693582 0.721442885771542  C 6.58937198067633 0.801603206412824  6.62732919254658 0.893787575150299  6.62732919254658 0.997995991983968  C 6.62732919254658 1.10220440881763  6.58937198067633 1.19438877755511  6.51345755693582 1.27454909819639  L 2.03830227743271 6  L 6.51345755693582 10.7254509018036  Z M 10.8861283643892 10.7254509018036  C 10.9620427881297 10.8056112224449  11 10.8977955911824  11 11.002004008016  C 11 11.1062124248497  10.9620427881297 11.1983967935872  10.8861283643892 11.2785571142285  L 10.3167701863354 11.8797595190381  C 10.2408557625949 11.9599198396794  10.1535541752933 12  10.0548654244306 12  C 9.95617667356798 12  9.86887508626639 11.9599198396794  9.79296066252588 11.8797595190381  L 4.48654244306418 6.27655310621242  C 4.41062801932367 6.19639278557114  4.37267080745342 6.10420841683367  4.37267080745342 6  C 4.37267080745342 5.89579158316633  4.41062801932367 5.80360721442886  4.48654244306418 5.72344689378758  L 9.79296066252588 0.120240480961924  C 9.86887508626639 0.0400801603206409  9.95617667356798 0  10.0548654244306 0  C 10.1535541752933 0  10.2408557625949 0.0400801603206409  10.3167701863354 0.120240480961924  L 10.8861283643892 0.721442885771542  C 10.9620427881297 0.801603206412824  11 0.893787575150299  11 0.997995991983968  C 11 1.10220440881763  10.9620427881297 1.19438877755511  10.8861283643892 1.27454909819639  L 6.41097308488613 6  L 10.8861283643892 10.7254509018036  Z " fill-rule="nonzero" fill="#000000" stroke="none" transform="matrix(1 0 0 1 829 366 )" />
  </g>
</svg>