<?xml version="1.0" encoding="utf-8"?>
<svg version="1.1" xmlns:xlink="http://www.w3.org/1999/xlink" width="150px" height="34px" xmlns="http://www.w3.org/2000/svg">
  <defs>
    <mask fill="white" id="clip25">
      <path d="M 147.49494949495 33  C 98.8316498316498 33  50.1683501683502 33  1.5050505050505 33  C 1.00336700336701 32.5217391304348  0.501683501683491 32.0434782608696  0 31.5652173913043  C 0 21.5217391304348  0 11.4782608695652  0 1.43478260869566  C 0.501683501683491 0.956521739130437  1.00336700336701 0.478260869565219  1.5050505050505 0  C 50.1683501683502 0  98.8316498316498 0  147.49494949495 0  C 147.996632996633 0.478260869565219  148.498316498316 0.956521739130437  149 1.43478260869566  C 149 11.4782608695652  149 21.5217391304348  149 31.5652173913043  C 148.498316498316 32.0434782608696  147.996632996633 32.5217391304348  147.49494949495 33  Z " fill-rule="evenodd" />
    </mask>
  </defs>
  <g transform="matrix(1 0 0 1 -168 -124 )">
    <path d="M 147.49494949495 33  C 98.8316498316498 33  50.1683501683502 33  1.5050505050505 33  C 1.00336700336701 32.5217391304348  0.501683501683491 32.0434782608696  0 31.5652173913043  C 0 21.5217391304348  0 11.4782608695652  0 1.43478260869566  C 0.501683501683491 0.956521739130437  1.00336700336701 0.478260869565219  1.5050505050505 0  C 50.1683501683502 0  98.8316498316498 0  147.49494949495 0  C 147.996632996633 0.478260869565219  148.498316498316 0.956521739130437  149 1.43478260869566  C 149 11.4782608695652  149 21.5217391304348  149 31.5652173913043  C 148.498316498316 32.0434782608696  147.996632996633 32.5217391304348  147.49494949495 33  Z M 74.7447137100809 33  L 74.9173592524393 0.000379408484931787  C 74.9042602653929 0.000276093981653958  74.8022622242003 16.0385664631063  74.7447137100809 24.057659990417  C 74.7447137100809 27.0384399936113  74.7316144104241 32.9999564381061  74.7447137100809 33  Z " fill-rule="nonzero" fill="#ffffff" stroke="none" transform="matrix(1 0 0 1 168 124 )" />
    <path d="M 147.49494949495 33  C 98.8316498316498 33  50.1683501683502 33  1.5050505050505 33  C 1.00336700336701 32.5217391304348  0.501683501683491 32.0434782608696  0 31.5652173913043  C 0 21.5217391304348  0 11.4782608695652  0 1.43478260869566  C 0.501683501683491 0.956521739130437  1.00336700336701 0.478260869565219  1.5050505050505 0  C 50.1683501683502 0  98.8316498316498 0  147.49494949495 0  C 147.996632996633 0.478260869565219  148.498316498316 0.956521739130437  149 1.43478260869566  C 149 11.4782608695652  149 21.5217391304348  149 31.5652173913043  C 148.498316498316 32.0434782608696  147.996632996633 32.5217391304348  147.49494949495 33  Z " stroke-width="2" stroke="#81d3f8" fill="none" transform="matrix(1 0 0 1 168 124 )" mask="url(#clip25)" />
    <path d="M 74.9173592524393 0.000379408484931787  C 74.9042602653929 0.000276093981653958  74.8022622242003 16.0385664631063  74.7447137100809 24.057659990417  C 74.7447137100809 27.0384399936113  74.7316144104241 32.9999564381061  74.7447137100809 33  " stroke-width="1" stroke="#81d3f8" fill="none" transform="matrix(1 0 0 1 168 124 )" />
  </g>
</svg>