<?xml version="1.0" encoding="utf-8"?>
<svg version="1.1" xmlns:xlink="http://www.w3.org/1999/xlink" width="11px" height="12px" xmlns="http://www.w3.org/2000/svg">
  <g transform="matrix(1 0 0 1 -921 -366 )">
    <path d="M 6.51345755693582 5.72344689378758  C 6.58937198067633 5.80360721442886  6.62732919254658 5.89579158316633  6.62732919254658 6  C 6.62732919254658 6.10420841683367  6.58937198067633 6.19639278557114  6.51345755693582 6.27655310621242  L 1.20703933747412 11.8797595190381  C 1.13112491373361 11.9599198396794  1.04382332643202 12  0.945134575569358 12  C 0.846445824706694 12  0.759144237405107 11.9599198396794  0.683229813664596 11.8797595190381  L 0.113871635610766 11.2785571142285  C 0.0379572118702554 11.1983967935872  0 11.1062124248497  0 11.002004008016  C 0 10.8977955911824  0.0379572118702554 10.8056112224449  0.113871635610766 10.7254509018036  L 4.58902691511387 6  L 0.113871635610766 1.27454909819639  C 0.0379572118702554 1.19438877755511  0 1.10220440881763  0 0.997995991983968  C 0 0.893787575150299  0.0379572118702554 0.801603206412824  0.113871635610766 0.721442885771542  L 0.683229813664596 0.120240480961924  C 0.759144237405107 0.0400801603206409  0.846445824706694 0  0.945134575569358 0  C 1.04382332643202 0  1.13112491373361 0.0400801603206409  1.20703933747412 0.120240480961924  L 6.51345755693582 5.72344689378758  Z M 10.8861283643892 5.72344689378758  C 10.9620427881297 5.80360721442886  11 5.89579158316633  11 6  C 11 6.10420841683367  10.9620427881297 6.19639278557114  10.8861283643892 6.27655310621242  L 5.57971014492754 11.8797595190381  C 5.50379572118703 11.9599198396794  5.41649413388544 12  5.31780538302277 12  C 5.21911663216011 12  5.13181504485852 11.9599198396794  5.05590062111801 11.8797595190381  L 4.48654244306418 11.2785571142285  C 4.41062801932367 11.1983967935872  4.37267080745342 11.1062124248497  4.37267080745342 11.002004008016  C 4.37267080745342 10.8977955911824  4.41062801932367 10.8056112224449  4.48654244306418 10.7254509018036  L 8.96169772256729 6  L 4.48654244306418 1.27454909819639  C 4.41062801932367 1.19438877755511  4.37267080745342 1.10220440881763  4.37267080745342 0.997995991983968  C 4.37267080745342 0.893787575150299  4.41062801932367 0.801603206412824  4.48654244306418 0.721442885771542  L 5.05590062111801 0.120240480961924  C 5.13181504485852 0.0400801603206409  5.21911663216011 0  5.31780538302277 0  C 5.41649413388544 0  5.50379572118703 0.0400801603206409  5.57971014492754 0.120240480961924  L 10.8861283643892 5.72344689378758  Z " fill-rule="nonzero" fill="#000000" stroke="none" transform="matrix(1 0 0 1 921 366 )" />
  </g>
</svg>